<svg width="602" height="642" viewBox="0 0 602 642" fill="none" xmlns="http://www.w3.org/2000/svg">
<path d="M382.359 12.2734H44.157C26.6776 12.2734 12.5078 26.4432 12.5078 43.9226V597.499C12.5078 614.979 26.6776 629.148 44.157 629.148H382.359C399.839 629.148 414.008 614.979 414.008 597.499V43.9226C414.008 26.4432 399.839 12.2734 382.359 12.2734Z" fill="white"/>
<path d="M382.359 24.5456C393.031 24.5456 401.702 33.2166 401.702 43.8886V597.465C401.702 608.137 393.031 616.808 382.359 616.808H44.1563C33.4843 616.808 24.8133 608.137 24.8133 597.465V43.9219C24.8133 33.2499 33.4843 24.579 44.1563 24.579H382.359M382.359 0H44.1563C19.8775 0 0.234375 19.6765 0.234375 43.9219V597.499C0.234375 621.777 19.9109 641.421 44.1563 641.421H382.359C406.637 641.421 426.281 621.744 426.281 597.499V43.9219C426.281 19.6431 406.604 0 382.359 0Z" fill="black"/>
<path d="M570.62 288.68H266.769C256.601 288.68 248.359 296.922 248.359 307.089V610.941C248.359 621.108 256.601 629.35 266.769 629.35H570.62C580.788 629.35 589.03 621.108 589.03 610.941V307.089C589.03 296.922 580.788 288.68 570.62 288.68Z" fill="#FEE101"/>
<path d="M570.62 300.985C573.988 300.985 576.723 303.72 576.723 307.088V610.94C576.723 614.308 573.988 617.043 570.62 617.043H266.768C263.4 617.043 260.665 614.308 260.665 610.94V307.088C260.665 303.72 263.4 300.985 266.768 300.985H570.62ZM570.62 276.406H266.768C249.826 276.406 236.086 290.146 236.086 307.088V610.94C236.086 627.882 249.826 641.622 266.768 641.622H570.62C587.562 641.622 601.302 627.882 601.302 610.94V307.088C601.302 290.146 587.562 276.406 570.62 276.406Z" fill="black"/>
<path d="M452.661 280.109H384.76C378.314 280.109 373.088 285.335 373.088 291.782V419.946C373.088 426.393 378.314 431.618 384.76 431.618H452.661C459.108 431.618 464.333 426.393 464.333 419.946V291.782C464.333 285.335 459.108 280.109 452.661 280.109Z" fill="black"/>
<path d="M452.662 283.777C457.064 283.777 460.632 287.345 460.632 291.747V419.945C460.632 424.347 457.064 427.915 452.662 427.915H384.728C380.325 427.915 376.757 424.347 376.757 419.945V291.747C376.757 287.345 380.325 283.777 384.728 283.777H452.662ZM452.662 276.406H384.728C376.257 276.406 369.387 283.276 369.387 291.747V419.945C369.387 428.416 376.257 435.286 384.728 435.286H452.662C461.133 435.286 468.003 428.416 468.003 419.945V291.747C468.003 283.276 461.133 276.406 452.662 276.406Z" fill="black"/>
<path d="M132.899 182.459C145.995 182.459 156.611 171.843 156.611 158.747C156.611 145.651 145.995 135.035 132.899 135.035C119.804 135.035 109.188 145.651 109.188 158.747C109.188 171.843 119.804 182.459 132.899 182.459Z" fill="black"/>
<path d="M132.9 138.738C143.939 138.738 152.91 147.709 152.91 158.748C152.91 169.786 143.939 178.758 132.9 178.758C121.861 178.758 112.89 169.786 112.89 158.748C112.89 147.709 121.861 138.738 132.9 138.738ZM132.9 131.367C117.759 131.367 105.52 143.64 105.52 158.748C105.52 173.855 117.792 186.128 132.9 186.128C148.007 186.128 160.28 173.855 160.28 158.748C160.28 143.64 148.007 131.367 132.9 131.367Z" fill="black"/>
<path d="M293.612 182.459C306.708 182.459 317.324 171.843 317.324 158.747C317.324 145.651 306.708 135.035 293.612 135.035C280.517 135.035 269.9 145.651 269.9 158.747C269.9 171.843 280.517 182.459 293.612 182.459Z" fill="black"/>
<path d="M293.613 138.738C304.652 138.738 313.623 147.709 313.623 158.748C313.623 169.786 304.652 178.758 293.613 178.758C282.574 178.758 273.603 169.786 273.603 158.748C273.603 147.709 282.574 138.738 293.613 138.738ZM293.613 131.367C278.472 131.367 266.232 143.64 266.232 158.748C266.232 173.855 278.505 186.128 293.613 186.128C308.72 186.128 320.993 173.855 320.993 158.748C320.993 143.64 308.72 131.367 293.613 131.367Z" fill="black"/>
<path d="M243.221 217.842C240.553 216.442 237.218 217.442 235.817 220.143C235.251 221.211 231.882 226.713 221.577 229.015C219.009 229.582 216.208 229.915 213.273 229.982C210.338 229.915 207.537 229.582 204.969 229.015C194.664 226.713 191.295 221.211 190.728 220.143C189.328 217.475 185.993 216.442 183.325 217.842C180.657 219.243 179.623 222.578 181.023 225.246C182.758 228.548 188.327 236.552 202.601 239.72C205.902 240.454 209.438 240.887 213.139 240.954C213.173 240.954 213.239 240.954 213.273 240.954C213.306 240.954 213.373 240.954 213.406 240.954C217.108 240.854 220.643 240.454 223.945 239.72C238.185 236.552 243.788 228.548 245.522 225.246C246.923 222.578 245.922 219.243 243.221 217.842Z" fill="black"/>
<path d="M213.24 249.258H212.806C208.704 249.158 204.602 248.658 200.767 247.824C183.125 243.888 175.921 233.417 173.653 229.114C171.919 225.846 171.586 222.111 172.686 218.576C173.787 215.041 176.188 212.173 179.456 210.438C182.724 208.704 186.46 208.371 189.995 209.471C193.53 210.572 196.398 212.973 198.132 216.208C198.166 216.275 200.066 219.343 206.837 220.844C208.804 221.277 210.972 221.544 213.306 221.611C215.641 221.544 217.809 221.277 219.776 220.844C226.546 219.343 228.414 216.275 228.514 216.175C230.215 212.973 233.083 210.572 236.618 209.471C240.153 208.371 243.888 208.738 247.157 210.438C250.425 212.173 252.826 215.041 253.927 218.576C255.027 222.111 254.66 225.846 252.96 229.114C250.692 233.417 243.488 243.888 225.846 247.824C222.011 248.691 217.942 249.158 213.707 249.258H213.373H213.24Z" fill="black"/>
</svg>
